<?xml version="1.0" standalone="no"?><!DOCTYPE svg PUBLIC "-//W3C//DTD SVG 1.1//EN" "http://www.w3.org/Graphics/SVG/1.1/DTD/svg11.dtd"><svg class="icon" width="200px" height="200.00px" viewBox="0 0 1024 1024" version="1.1" xmlns="http://www.w3.org/2000/svg"><path d="M384 896c-17.664 0-32-14.304-32-32L352 160c0-17.664 14.336-32 32-32s32 14.336 32 32l0 704C416 881.696 401.664 896 384 896z" fill="#5D656E" /><path d="M641.056 896.128c-17.696 0-32-14.304-32-32l0-704c0-17.664 14.304-32 32-32s32 14.336 32 32l0 704C673.056 881.824 658.752 896.128 641.056 896.128z" fill="#5D656E" /><path d="M864 736c-17.696 0-32-14.304-32-32L832 320c0-17.664 14.304-32 32-32s32 14.336 32 32l0 384C896 721.696 881.696 736 864 736z" fill="#5D656E" /><path d="M160 736c-17.664 0-32-14.304-32-32L128 320c0-17.664 14.336-32 32-32s32 14.336 32 32l0 384C192 721.696 177.664 736 160 736z" fill="#5D656E" /></svg>